HIERARCHY
ROOT root
{
	OFFSET	0	13.1	24.9
	CHANNELS 6  Xposition Yposition Zposition Xrotation Yrotation Zrotation
	JOINT spine_1
	{
		OFFSET	0	9.99999	0
		CHANNELS 3  Xrotation Yrotation Zrotation
		JOINT spine_2
		{
			OFFSET	0	112	-10
			CHANNELS 3  Xrotation Yrotation Zrotation
			JOINT spine_3
			{
				OFFSET	0	206.5	19.3
				CHANNELS 3  Xrotation Yrotation Zrotation
				JOINT spine_4
				{
					OFFSET	0	110.4	14.6
					CHANNELS 3  Xrotation Yrotation Zrotation
					JOINT neck_1
					{
						OFFSET	0	71.8	-50.3
						CHANNELS 3  Xrotation Yrotation Zrotation
						JOINT neck_2
						{
							OFFSET	0	86.2	-25.8
							CHANNELS 3  Xrotation Yrotation Zrotation
							JOINT head_ee
							{
								OFFSET	0	179.8	-8.7
								CHANNELS 3  Xrotation Yrotation Zrotation
								End Site
								{
									OFFSET	1	0	0
								}
							}
						}
					}
					JOINT left_clavicle
					{
						OFFSET	-43.2	22.4	-70.8
						CHANNELS 3  Xrotation Yrotation Zrotation
						JOINT left_shoulder
						{
							OFFSET	-93.9	-5.79999	48.7
							CHANNELS 3  Xrotation Yrotation Zrotation
							JOINT left_elbow
							{
								OFFSET	-291.4	-30.8	15.2
								CHANNELS 3  Xrotation Yrotation Zrotation
								JOINT left_lowarm_twist
								{
									OFFSET	-110.7	-3.89999	13.6
									CHANNELS 3  Xrotation Yrotation Zrotation
									JOINT left_hand
									{
										OFFSET	-110.7	-3.89999	13.6
										CHANNELS 3  Xrotation Yrotation Zrotation
										JOINT left_ee
										{
											OFFSET	-80.8	-5.10001	12.1
											CHANNELS 3  Xrotation Yrotation Zrotation
											End Site
											{
												OFFSET	1	0	0
											}
										}
									}
								}
							}
						}
					}
					JOINT right_clavicle
					{
						OFFSET	43.2	22.4	-70.8
						CHANNELS 3  Xrotation Yrotation Zrotation
						JOINT right_shoulder
						{
							OFFSET	93.9	-5.79999	48.7
							CHANNELS 3  Xrotation Yrotation Zrotation
							JOINT right_elbow
							{
								OFFSET	291.4	-30.8	15.2
								CHANNELS 3  Xrotation Yrotation Zrotation
								JOINT right_lowarm_twist
								{
									OFFSET	110.7	-3.89999	13.6
									CHANNELS 3  Xrotation Yrotation Zrotation
									JOINT right_hand
									{
										OFFSET	110.7	-3.89999	13.6
										CHANNELS 3  Xrotation Yrotation Zrotation
										JOINT right_ee
										{
											OFFSET	80.8	-5.10001	12.1
											CHANNELS 3  Xrotation Yrotation Zrotation
											End Site
											{
												OFFSET	1	0	0
											}
										}
									}
								}
							}
						}
					}
				}
			}
		}
	}
	JOINT left_hip
	{
		OFFSET	-82.8	-127.5	0.300001
		CHANNELS 3  Xrotation Yrotation Zrotation
		JOINT left_knee
		{
			OFFSET	-28.2	-396.7	2.2
			CHANNELS 3  Xrotation Yrotation Zrotation
			JOINT left_ankle
			{
				OFFSET	-11.7	-411.3	35.4
				CHANNELS 3  Xrotation Yrotation Zrotation
				JOINT left_toes
				{
					OFFSET	0	-60	-88.6
					CHANNELS 3  Xrotation Yrotation Zrotation
					JOINT left_foot_ee
					{
						OFFSET	-22.5	-16.5	-42.2
						CHANNELS 3  Xrotation Yrotation Zrotation
						End Site
						{
							OFFSET	1	0	0
						}
					}
				}
			}
		}
	}
	JOINT right_hip
	{
		OFFSET	82.8	-127.5	0.300001
		CHANNELS 3  Xrotation Yrotation Zrotation
		JOINT right_knee
		{
			OFFSET	28.2	-396.7	2.2
			CHANNELS 3  Xrotation Yrotation Zrotation
			JOINT right_ankle
			{
				OFFSET	11.7	-411.3	35.4
				CHANNELS 3  Xrotation Yrotation Zrotation
				JOINT right_toes
				{
					OFFSET	0	-60	-88.6
					CHANNELS 3  Xrotation Yrotation Zrotation
					JOINT right_foot_ee
					{
						OFFSET	22.5	-16.5	-42.2
						CHANNELS 3  Xrotation Yrotation Zrotation
						End Site
						{
							OFFSET	1	0	0
						}
					}
				}
			}
		}
	}
}
MOTION
Frames: 11
Frame Time: 0.02
918.999 680.902 -1333.77 -17.0217 54.7735 11.786 4.59743 0.475355 3.38417 4.60376 0.259176 3.40753 4.61443 -0.188968 3.41213 4.59835 0.351967 3.3992 -12.5464 13.0632 -5.85713 -12.9693 28.4974 -1.65113 -0.0 0.0 -0.0 -7.85067 16.4827 -10.5768 5.18507 -30.3186 58.9113 4.5549 -66.0757 2.96317 -8.97459 -0.40126 1.07374 0.841701 -8.56021 2.04882 -0.0 0.0 -0.0 7.53466 -3.98918 -14.5838 -57.036 47.285 -52.6295 0.378212 10.6119 -0.0351252 70.272 2.76865 7.96923 2.13865 -29.8465 -23.7237 0.0 0.0 0.0 30.9522 20.1648 -9.2181 3.6853 -0.169209 -0.540042 -17.6068 8.77988 2.64404 9.63148 -0.0 -0.0 -0.0 0.0 -0.0 -4.99236 36.4837 3.98959 -10.3495 -0.285839 -1.56043 42.447 -21.9588 5.30077 -9.24399 0.0 0.0 0.0 0.0 0.0 
906.2 683.898 -1329.4 -17.8105 55.0534 12.4558 4.69474 0.498983 3.32944 4.70086 0.286233 3.35441 4.71285 -0.149353 3.36327 4.69728 0.383383 3.34471 -13.4508 13.4354 -4.3588 -14.0056 28.2668 0.160113 -0.0 0.0 -0.0 -8.17742 16.5873 -11.0836 4.29989 -31.5863 59.4612 4.3572 -65.1212 2.78312 -8.19265 -0.359649 0.982795 0.762051 -7.12022 2.12321 -0.0 0.0 -0.0 7.90392 -3.58874 -15.3095 -57.044 47.1467 -52.6799 0.327648 9.21931 -0.0264175 70.0959 2.75033 7.956 2.63551 -29.637 -26.6873 0.0 0.0 0.0 30.9089 19.7239 -8.49038 3.08675 -0.139365 -0.453072 -15.0454 6.93909 2.25643 7.25731 -0.0 -0.0 -0.0 0.0 -0.0 -6.88436 36.9112 5.60935 -7.93001 -0.244363 -1.19152 42.3248 -21.6591 5.28149 -9.44819 0.0 0.0 0.0 0.0 0.0 
889.728 685.734 -1328.3 -17.0419 55.4524 11.8859 4.73323 0.431864 3.29932 4.73926 0.221162 3.32009 4.74733 -0.207551 3.32096 4.73208 0.319243 3.3121 -13.2551 11.851 -5.43895 -13.653 25.9216 -1.47161 -0.0 0.0 -0.0 -7.81773 16.428 -10.5403 3.34977 -31.358 60.2371 4.07964 -63.6542 2.53281 -10.1898 -0.468387 1.21394 0.567548 -4.56799 1.88868 -0.0 0.0 -0.0 8.12358 -3.28713 -15.7472 -58.329 47.9407 -51.5047 0.359591 10.1004 -0.0317778 67.5848 2.49369 7.76125 3.29373 -30.5649 -30.9568 0.0 0.0 0.0 30.8106 19.9925 -8.15346 0.484409 -0.02025 -0.0715775 -10.3165 7.51454 1.53899 5.79936 -0.0 -0.0 -0.0 0.0 -0.0 -7.98824 36.8549 6.15792 -9.68325 -0.275973 -1.45868 41.5326 -17.8736 5.12 -8.40672 0.0 0.0 0.0 0.0 0.0 
873.882 688.413 -1324.49 -17.7863 55.1863 12.9814 4.87335 0.486623 3.1247 4.87874 0.286905 3.1493 4.89005 -0.112388 3.16034 4.87632 0.387887 3.13848 -13.5916 11.4819 -3.83367 -13.9935 24.229 0.0115041 -0.0 0.0 -0.0 -7.99799 16.7795 -10.7209 5.02732 -30.8598 62.906 3.54885 -60.3524 2.06395 -11.8415 -0.564382 1.4022 1.11223 -7.66071 4.26126 -0.0 0.0 -0.0 8.45558 -2.89221 -16.4126 -58.5323 48.4049 -51.299 0.335112 9.42562 -0.0276267 66.6203 2.39742 7.68351 3.62387 -30.5511 -33.1059 0.0 0.0 0.0 30.3486 20.2029 -7.58737 0.0886235 -0.00365965 -0.0131077 -5.48738 6.53742 0.81282 5.26956 -0.0 -0.0 -0.0 0.0 -0.0 -8.65019 36.5986 6.76015 -8.93075 -0.263408 -1.3439 40.0293 -16.7638 4.96444 -8.35126 0.0 0.0 0.0 0.0 0.0 
862.48 691.036 -1322.1 -17.1407 55.7727 12.4339 4.69937 0.505258 3.04857 4.70448 0.31034 3.0745 4.71715 -0.0889994 3.08883 4.70406 0.399707 3.06418 -13.9903 11.7096 -3.40158 -14.4379 24.3995 0.592499 -0.0 0.0 -0.0 -7.85106 16.3552 -10.6198 4.87589 -31.1562 63.5736 3.35658 -58.963 1.898 -13.022 -0.636306 1.53503 0.977101 -4.10811 4.84463 -0.0 0.0 -0.0 8.69612 -2.14772 -16.9176 -58.4349 48.8083 -51.054 0.366622 10.2937 -0.0330225 67.0876 2.44389 7.72137 4.28157 -31.0339 -37.6356 0.0 0.0 0.0 29.3231 20.4528 -6.80242 -1.12825 0.0448093 0.167344 -0.898677 4.78043 0.132061 6.16302 -0.0 -0.0 -0.0 0.0 -0.0 -9.05936 36.7688 7.03301 -10.33 -0.285567 -1.55746 38.7548 -14.9218 4.81815 -7.227 0.0 0.0 0.0 0.0 0.0 
848.035 693.258 -1318.76 -16.7744 55.8758 11.9788 4.63342 0.722979 3.05838 4.63847 0.526997 3.09813 4.66309 0.120155 3.14029 4.64986 0.61436 3.08201 -15.4124 12.0063 -2.8618 -15.9874 24.6477 1.54249 -0.0 0.0 -0.0 -8.16559 16.3163 -11.1566 4.62286 -31.5009 64.1291 3.2873 -58.4331 1.8388 -12.0433 -0.576483 1.42501 1.17934 -6.03908 5.40281 -0.0 0.0 -0.0 8.9439 -1.79059 -17.4264 -57.2043 49.891 -51.4018 0.283273 7.98806 -0.0197788 64.363 2.17737 7.49534 4.38279 -29.8357 -38.3052 0.0 0.0 0.0 27.9571 20.6787 -5.99341 0.112272 -0.00463935 -0.0166044 -1.54461 5.36358 0.227179 2.90696 -0.0 -0.0 -0.0 0.0 -0.0 -9.64544 36.7644 7.51561 -12.2052 -0.307074 -1.84438 37.3983 -16.786 4.71938 -7.20408 0.0 0.0 0.0 0.0 0.0 
838.908 689.977 -1317.01 -16.9709 56.1036 12.3313 4.44885 0.826971 3.08005 4.45391 0.629402 3.12636 4.48465 0.208264 3.18223 4.47121 0.70798 3.10953 -16.5212 12.7119 -2.28829 -17.2513 25.6733 2.62734 -0.0 0.0 -0.0 -8.9544 16.2133 -12.5201 4.44102 -31.9406 64.6255 3.36 -58.9887 1.90093 -12.6412 -0.612804 1.49234 1.75602 -7.32843 8.77781 -0.0 0.0 -0.0 9.33772 -1.44985 -18.2332 -57.2814 50.1423 -50.6908 0.321952 9.06173 -0.0255127 64.3975 2.18068 7.49828 4.84849 -31.2586 -41.8025 0.0 0.0 0.0 28.36 20.7766 -6.03331 -0.260509 0.010639 0.0385621 0.839186 3.16983 -0.123067 4.13909 -0.0 -0.0 -0.0 0.0 -0.0 -8.97235 36.8839 7.04572 -13.4841 -0.31635 -2.04038 35.5371 -18.1187 4.55946 -7.12656 0.0 0.0 0.0 0.0 0.0 
824.633 693.282 -1310.24 -16.8442 56.3823 12.1371 4.44647 0.897132 3.03621 4.45133 0.702207 3.08708 4.4857 0.285812 3.15295 4.47267 0.77994 3.06838 -15.9336 12.9653 -3.60868 -16.6692 26.9085 1.35455 -0.0 0.0 -0.0 -9.53162 16.8184 -13.271 4.91685 -32.6974 66.8338 3.2713 -58.3084 1.82518 -12.9624 -0.632606 1.52835 2.05844 -8.32485 10.4194 -0.0 0.0 -0.0 9.77663 -1.10358 -19.1409 -56.9814 51.0182 -50.2218 0.293144 8.26262 -0.0211739 62.4645 1.99818 7.33052 4.84237 -31.6597 -41.7511 0.0 0.0 0.0 26.8722 20.7595 -4.74876 0.49333 -0.0206286 -0.072894 1.89877 2.28034 -0.278117 3.11982 -0.0 -0.0 -0.0 0.0 -0.0 -9.46778 37.3234 7.77919 -14.3931 -0.320283 -2.17979 33.2458 -21.312 4.38409 -7.98388 0.0 0.0 0.0 0.0 0.0 
808.258 696.253 -1307.86 -17.479 56.751 12.8857 4.50932 0.801284 3.02097 4.51419 0.607521 3.06578 4.54314 0.197783 3.11908 4.53022 0.68767 3.04882 -13.406 13.4191 -4.95715 -13.9548 28.6023 -0.426555 -0.0 0.0 -0.0 -9.61764 16.7744 -13.4339 4.8131 -33.0025 67.8331 2.91169 -55.2554 1.52422 -12.8506 -0.625692 1.51583 2.24066 -8.96948 11.391 -0.0 0.0 -0.0 10.0508 -0.983967 -19.7081 -57.2839 51.4601 -49.5143 0.270441 7.63059 -0.0180353 61.1811 1.8802 7.2158 4.85582 -31.3898 -41.8571 0.0 0.0 0.0 25.2123 20.8773 -3.73314 1.58016 -0.0682877 -0.232853 2.8117 1.14163 -0.411759 0.0852223 -0.0 -0.0 -0.0 0.0 -0.0 -8.81033 37.7418 7.62392 -16.6097 -0.320597 -2.51985 32.5444 -23.4554 4.35648 -7.55886 0.0 0.0 0.0 0.0 0.0 
800.998 694.016 -1304.48 -18.6308 57.1839 13.763 4.62011 0.556186 2.98918 4.625 0.364939 3.01847 4.64051 -0.0316144 3.04027 4.6279 0.448715 3.00717 -13.5376 13.7323 -3.6458 -14.1256 28.3966 0.965884 -0.0 0.0 -0.0 -9.86885 17.2509 -13.6721 4.29083 -33.2725 68.0932 2.88182 -54.9785 1.49972 -13.474 -0.664565 1.58549 1.98449 -7.75953 10.1562 -0.0 0.0 -0.0 10.3003 -1.40862 -20.1947 -58.1877 53.0199 -46.9334 0.27718 7.8184 -0.018941 59.2701 1.70938 7.0402 4.65267 -31.2991 -40.3293 0.0 0.0 0.0 24.6538 20.8541 -2.64767 2.81576 -0.126152 -0.413597 3.08009 -0.0216544 -0.451966 -1.76391 0.0 0.0 -0.0 0.0 -0.0 -8.6975 38.4016 7.91527 -17.1023 -0.31888 -2.59541 30.9183 -22.6154 4.15719 -7.71453 0.0 0.0 0.0 0.0 0.0 
785.373 689.303 -1298.49 -18.1703 57.7729 13.1573 4.5172 0.647653 3.17545 4.5227 0.444385 3.21017 4.54358 0.0167891 3.24071 4.52931 0.528123 3.19748 -13.0785 13.7287 -4.71608 -13.6214 29.0444 -0.181095 -0.0 0.0 -0.0 -10.1059 17.595 -13.9338 4.06658 -33.6018 68.826 2.76239 -53.8317 1.4026 -13.3847 -0.658954 1.57555 2.12178 -8.62329 10.7247 -0.0 0.0 -0.0 10.0638 -1.39533 -19.7111 -58.1443 53.0497 -46.0518 0.428746 11.991 -0.0450291 59.0038 1.68604 7.01527 4.46653 -31.1737 -38.9639 0.0 0.0 0.0 24.1983 20.7976 -2.08105 -0.499238 0.0202346 0.0739412 10.7256 1.03826 -1.53144 -3.67038 0.0 0.0 -0.0 0.0 -0.0 -8.91399 38.6258 8.21349 -18.6328 -0.309403 -2.83003 30.7792 -25.7889 4.21698 -6.72601 0.0 0.0 0.0 0.0 0.0 
